# xmcd CD database file
#
# Track frame offsets:
#	150
#	18170
#	39985
#	53662
#	67514
#	82986
#	102273
#	114906
#	131994
#	146426
#	171546
#	192696
#	206230
#	223870
#	236939
#	252619
#	268293
#	287870
#	300490
#	316915
#	331966
#
# Disc length: 4646 seconds
#
# Revision: 0
# Processed by: cddbd v1.5.1PL0 Copyright (c) Steve Scherf et al.
# Submitted via: CDex 1.51
#
DISCID=42122415
DTITLE=Various Artist - 95.9 The Ranch Texas Music Series '04
DYEAR=2004
DGENRE=Country
TTITLE0=Cross Canadian Ragweed - Look At Me
TTITLE1=Randy Rogers - Tonights Not The Night
TTITLE2=Reckless Kelly - Nobody's Girl
TTITLE3=Cooder Graw - Better Days
TTITLE4=Roger Creager - Long Way To Mexico
TTITLE5=Chris Knight - Jealous Kind
TTITLE6=Phil Pritchett - God Save The Queen
TTITLE7=Billy Joe Shaver - Freedom's Child
TTITLE8=Larry Joe Taylor - Kamikaze Cowgirl
TTITLE9=Drew Womack - Fastest Way To Texas
TTITLE10=Gary P Nunn - What I Like About Texas
TTITLE11=Deryl Dodd - Stronger Proof
TTITLE12=Aaron Watson - Reckless
TTITLE13=Templeton Thompson - If I Didn't Need The Money
TTITLE14=Blue Edmondson - Travelin' Man
TTITLE15=Wade Bowen - Getaway
TTITLE16=Stoney Larue - Downtown
TTITLE17=Allie Danielle - The Next Big Thing
TTITLE18=Terri Hendrix - Walk On Me
TTITLE19=Tommy Alverson - Anytime, Anywhere
TTITLE20=Ray Wylie Hubbard - Three Days Straight
EXTD=YEAR: 2004
EXTT0=
EXTT1=
EXTT2=
EXTT3=
EXTT4=
EXTT5=
EXTT6=
EXTT7=
EXTT8=
EXTT9=
EXTT10=
EXTT11=
EXTT12=
EXTT13=
EXTT14=
EXTT15=
EXTT16=
EXTT17=
EXTT18=
EXTT19=
EXTT20=
PLAYORDER=
